# xmcd
#
# Track frame offsets: 
#        151
#        17753
#        41125
#        62000
#        82029
#        102072
#        123110
#        140166
#        176876
#        192722
#        215545
#
# Disc length: 3087 seconds
#
# Revision: 0
# Processed by: cddbd v1.5PL3 Copyright (c) Steve Scherf et al.
# Submitted via: ExactAudioCopy v0.95a5
#
DISCID=a40c0d0b
DTITLE=Bourbon Jone - Original Recipe
DYEAR=1996
DGENRE=Blues
TTITLE0=Dark was the Night
TTITLE1=Nobody's Fault But Mine
TTITLE2=Forty Four
TTITLE3=Baby Please Don't Go
TTITLE4=Can't Stop Lovin'
TTITLE5=No More Doggin'
TTITLE6=Ain't Got Nobody
TTITLE7=Cried Last Night
TTITLE8=Taylor's Rock
TTITLE9=Killing Floor
TTITLE10=Wig Hat
EXTD=
EXTT0=
EXTT1=
EXTT2=
EXTT3=
EXTT4=
EXTT5=
EXTT6=
EXTT7=
EXTT8=
EXTT9=
EXTT10=
PLAYORDER=
